<?xml version="1.0" standalone="no"?>
<!DOCTYPE svg PUBLIC "-//W3C//DTD SVG 20010904//EN"
 "http://www.w3.org/TR/2001/REC-SVG-20010904/DTD/svg10.dtd">
<svg version="1.0" xmlns="http://www.w3.org/2000/svg"
 width="320.000000pt" height="320.000000pt" viewBox="0 0 320.000000 320.000000"
 preserveAspectRatio="xMidYMid meet">
<metadata>
Created by potrace 1.14, written by Peter Selinger 2001-2017
</metadata>
<g transform="translate(0.000000,320.000000) scale(0.100000,-0.100000)"
fill="#000000" stroke="none">
<path d="M1505 3026 c-97 -46 -100 -50 -405 -731 -156 -346 -284 -632 -286
-634 -2 -2 -37 28 -79 65 -41 38 -79 67 -83 65 -4 -2 -90 -83 -191 -180 l-184
-176 157 -151 157 -152 -134 -308 c-74 -170 -144 -336 -155 -369 -24 -70 -76
-300 -70 -314 1 -5 116 179 253 410 138 230 253 419 257 419 3 0 95 -86 205
-192 109 -105 239 -230 288 -277 50 -48 154 -148 233 -224 l143 -138 248 240
c137 133 254 248 261 256 7 8 84 83 172 167 159 151 160 152 176 130 10 -12
123 -195 252 -407 129 -211 238 -385 241 -385 4 0 -8 53 -27 118 -33 118 -114
327 -258 667 l-77 179 161 161 160 160 -183 183 c-100 100 -187 182 -192 182
-6 -1 -46 -34 -90 -75 -44 -41 -83 -71 -87 -67 -4 4 -84 194 -178 422 -279
676 -311 752 -340 810 -33 65 -100 133 -152 155 -55 23 -134 19 -193 -9z m191
-50 c195 -91 125 -355 -94 -356 -63 0 -98 16 -140 64 -108 124 -17 311 153
315 17 0 53 -10 81 -23z m-197 -454 l52 -81 -302 -508 c-166 -279 -393 -661
-504 -848 -111 -187 -259 -446 -329 -575 -70 -129 -132 -239 -137 -245 -21
-22 47 172 109 310 97 217 945 2121 959 2154 l15 34 42 -80 c24 -44 67 -116
95 -161z m380 172 c17 -51 823 -1943 946 -2219 32 -71 75 -188 71 -192 -1 -1
-34 56 -72 128 -76 144 -237 413 -818 1374 -414 683 -447 737 -480 774 l-21
24 35 -7 c86 -16 109 -17 150 -6 56 15 120 79 145 144 10 25 19 46 20 46 2 0
13 -29 24 -66z m-44 -816 c130 -236 235 -432 233 -437 -5 -14 -287 -338 -366
-421 -37 -38 -73 -70 -79 -70 -15 0 -547 495 -551 512 -1 7 48 96 110 198 321
528 403 659 409 652 4 -4 114 -199 244 -434z m-1119 -194 c61 -53 82 -94 50
-94 -8 0 -44 28 -80 61 -52 49 -64 65 -55 75 6 8 14 14 17 14 2 0 33 -25 68
-56z m1857 42 c6 -15 -131 -156 -151 -156 -7 0 -16 8 -19 17 -5 12 14 35 68
85 76 69 93 78 102 54z m-1900 -114 l77 -78 -18 -39 c-10 -22 -34 -74 -52
-115 -18 -42 -43 -83 -56 -93 -23 -17 -24 -17 -56 12 l-33 30 38 38 c20 21 37
42 37 46 0 17 -25 4 -56 -30 l-34 -37 -31 30 -30 31 70 68 c39 38 71 72 71 77
0 20 -27 3 -91 -59 l-70 -67 -31 31 -31 32 104 100 c57 55 106 100 109 101 3
0 40 -35 83 -78z m2043 -19 c57 -54 104 -103 104 -109 0 -6 -11 -21 -25 -34
l-25 -24 -63 60 c-80 77 -97 90 -97 74 0 -7 32 -42 71 -79 l71 -67 -29 -32
-29 -32 -49 45 c-27 24 -51 42 -54 40 -2 -3 14 -27 37 -54 l41 -48 -23 -22
c-12 -11 -27 -21 -32 -21 -18 0 -160 154 -174 188 l-13 34 89 89 c49 49 90 89
92 89 2 0 50 -44 108 -97z m-1451 -444 c93 -91 208 -202 255 -247 l86 -81 229
227 c334 331 342 339 360 321 14 -13 -19 -49 -285 -313 l-300 -299 -58 54
c-31 29 -173 167 -316 306 -222 217 -256 255 -246 269 15 17 5 26 275 -237z
m43 -158 c155 -152 287 -276 292 -276 6 0 150 136 320 303 304 297 309 302
324 280 111 -176 146 -234 146 -244 0 -27 -27 -20 -67 18 -59 57 -78 44 -23
-15 l43 -48 -28 -29 c-16 -17 -33 -30 -39 -30 -5 0 -40 32 -77 71 -44 48 -71
69 -79 64 -9 -6 10 -30 64 -83 l77 -75 -28 -29 c-14 -15 -32 -28 -38 -28 -6 0
-31 20 -55 45 -65 67 -80 55 -19 -15 l53 -61 -32 -31 -31 -32 -80 72 c-44 40
-82 68 -85 63 -3 -5 28 -41 70 -81 l76 -72 -23 -24 c-12 -13 -27 -24 -32 -24
-5 0 -27 16 -48 35 -37 33 -59 44 -59 28 0 -4 19 -26 42 -50 l42 -43 -29 -30
c-16 -16 -34 -30 -40 -30 -6 0 -43 30 -83 66 -40 37 -76 64 -79 60 -4 -3 26
-36 65 -73 40 -36 72 -72 72 -78 0 -7 -15 -24 -34 -38 l-33 -26 -44 45 c-24
24 -50 44 -58 44 -9 0 7 -22 37 -53 l52 -53 -32 -32 -33 -32 -72 72 c-40 40
-73 66 -73 58 0 -8 29 -44 65 -80 l64 -65 -65 -72 c-36 -40 -71 -73 -77 -73
-6 0 -26 14 -44 32 l-33 32 42 43 c23 23 38 46 34 50 -4 4 -26 -12 -48 -36
l-41 -43 -35 35 -36 36 68 71 c37 40 65 75 61 78 -3 3 -39 -27 -79 -67 l-73
-73 -31 38 -32 38 36 37 c52 53 38 69 -17 20 l-46 -40 -29 30 -28 29 67 68
c92 93 85 110 -10 23 l-78 -70 -33 32 -32 31 40 41 c22 22 40 44 40 48 0 17
-29 4 -60 -28 -19 -19 -39 -35 -45 -35 -6 0 -21 13 -32 29 l-21 28 69 69 c38
38 69 72 69 76 0 20 -28 3 -91 -58 -68 -66 -69 -67 -94 -50 -33 22 -32 31 10
81 46 57 32 66 -22 13 l-43 -42 -30 29 c-16 16 -30 31 -30 34 0 4 29 36 65 73
60 63 77 88 57 88 -4 0 -37 -29 -72 -65 -35 -36 -70 -65 -77 -65 -6 0 -21 14
-33 30 l-22 31 36 43 c19 24 33 46 29 49 -3 4 -26 -11 -52 -33 l-46 -39 -22
21 c-13 12 -23 25 -23 29 0 4 27 40 60 79 34 40 60 80 58 89 -1 9 6 31 16 49
l17 33 37 -32 c20 -18 164 -157 320 -308z m1251 309 c36 -31 37 -60 2 -60 -19
0 -26 10 -41 63 -11 34 -4 34 39 -3z"/>
<path d="M1532 2944 c-52 -27 -77 -70 -77 -134 1 -70 26 -114 80 -140 83 -40
171 -11 213 70 37 73 19 141 -51 194 -36 27 -122 32 -165 10z m138 -49 c45
-23 64 -77 41 -114 -8 -12 -23 -2 -73 47 -51 51 -60 64 -48 72 21 14 47 12 80
-5z m-30 -177 c0 -4 -17 -8 -39 -8 -55 0 -91 31 -91 79 0 21 3 41 7 45 7 7
123 -102 123 -116z"/>
</g>
</svg>
